<?xml version="1.0" encoding="UTF-8" standalone="no"?>
<!-- Created with Inkscape (http://www.inkscape.org/) -->
<svg id="svg6035" xmlns:rdf="http://www.w3.org/1999/02/22-rdf-syntax-ns#" xmlns="http://www.w3.org/2000/svg" height="38.628mm" width="45.589mm" version="1.1" xmlns:cc="http://creativecommons.org/ns#" xmlns:dc="http://purl.org/dc/elements/1.1/" viewBox="0 0 161.53684 136.87241">
 <metadata id="metadata6040">
  <rdf:RDF>
   <cc:Work rdf:about="">
    <dc:format>image/svg+xml</dc:format>
    <dc:type rdf:resource="http://purl.org/dc/dcmitype/StillImage"/>
    <dc:title/>
   </cc:Work>
  </rdf:RDF>
 </metadata>
 <g id="layer1" transform="translate(-54.946 -25.355)">
  <g fill="#0092d0">
   <g id="g726" transform="matrix(.83826 0 0 -.83826 74.67 54.159)">
    <path id="path728" d="m0 0c-2.459 0.024-5.249-0.382-6.766-2.537-0.973-1.382-0.795-3.392 0.169-4.723 1.005-1.386 2.64-1.952 4.222-1.207 2.43 1.144 3.057 4.844 3.374 7.156l-2.035 0.275c-0.221-2.536 0.011-5.723 2.34-7.276 2.11-1.407 4.407 0.384 5.591 2.087 0.764 1.101-1.033 2.135-1.79 1.046-0.559-0.806-1.781-2.115-2.848-1.289-1.505 1.167-1.366 3.772-1.221 5.432 0.101 1.158-1.876 1.431-2.035 0.276-0.238-1.739-0.539-4.57-2.105-5.728-0.672-0.497-1.318-0.259-1.77 0.364-0.573 0.791-0.644 1.699-0.103 2.542 0.95 1.48 3.461 1.525 4.977 1.511 1.336-0.013 1.335 2.058 0 2.071" fill="#0092d0"/>
   </g>
   <g id="g730" transform="matrix(.83826 0 0 -.83826 80.938 52.983)">
    <path id="path732" d="m0 0c3.851-1.955 7.98-4.165 11.124-7.172 0.964-0.923 2.431 0.54 1.464 1.465-3.278 3.136-7.526 5.457-11.542 7.496-1.189 0.603-2.237-1.184-1.046-1.789" fill="#0092d0"/>
   </g>
   <path id="path736" d="m89.703 51.061c-2.2851 2.3144-4.3279 4.8451-6.2827 7.4395-0.6748 0.89526 0.83406 1.7595 1.4996 0.87681 1.866-2.4762 3.8308-4.8803 6.0111-7.0883 0.78712-0.79718-0.44093-2.0261-1.228-1.228"/>
   <g id="g738" transform="matrix(.83826 0 0 -.83826 93.67 45.277)">
    <path id="path740" d="m0 0c0.835 0.099 2.723 0.437 3.13-0.623 0.462-1.199-0.762-2.891-1.358-3.818-0.438-0.683 0.142-1.54 0.895-1.559 2.336-0.058 4.639-0.592 6.942 0.037 1.287 0.351 0.741 2.35-0.55 1.998-2.092-0.572-4.268-0.016-6.392 0.036 0.298-0.519 0.596-1.039 0.895-1.558 1.025 1.598 2.214 3.732 1.466 5.675-0.772 2.007-3.225 2.097-5.028 1.883-1.31-0.155-1.325-2.228 0-2.071" fill="#0092d0"/>
   </g>
   <g id="g742" transform="matrix(.83826 0 0 -.83826 110.72 51.905)">
    <path id="path744" d="m0 0c0.69-3.392 1.319-7.081 2.771-10.248 0.556-1.212 2.341-0.159 1.789 1.046-1.366 2.979-1.913 6.562-2.562 9.753-0.267 1.308-2.263 0.753-1.998-0.551" fill="#0092d0"/>
   </g>
   <g id="g746" transform="matrix(.83826 0 0 -.83826 107.64 56.454)">
    <path id="path748" d="m0 0h10.667c1.336 0 1.336 2.071 0 2.071h-10.667c-1.336 0-1.336-2.071 0-2.071" fill="#0092d0"/>
   </g>
   <g id="g750" transform="matrix(.83826 0 0 -.83826 123.57 45.199)">
    <path id="path752" d="m0 0c1.287-5.397 1.947-10.892 2.63-16.391 0.134-1.077 1.745-1.507 2.035-0.275 0.49 2.08 2.608 7.475 4.289 3.013 1.542-4.093-3.073-3.879-5.68-3.073-1.279 0.396-1.822-1.604-0.55-1.998 2.449-0.757 5.659-1.389 7.591 0.788 1.283 1.446 1.155 3.742 0.412 5.401-0.671 1.499-2.103 3.121-3.934 2.767-2.716-0.525-3.597-4.1-4.126-6.347l2.035-0.276c-0.706 5.682-1.375 11.365-2.704 16.942-0.31 1.299-2.308 0.748-1.998-0.551" fill="#0092d0"/>
   </g>
   <g id="g754" transform="matrix(.83826 0 0 -.83826 133.68 54.188)">
    <path id="path756" d="m0 0c3.54-1.474 6.804-3.73 9.543-6.399 0.957-0.933 2.423 0.531 1.465 1.464-3.013 2.937-6.573 5.316-10.457 6.933-1.233 0.513-1.765-1.492-0.551-1.998" fill="#0092d0"/>
   </g>
   <g id="g758" transform="matrix(.83826 0 0 -.83826 141.54 50.677)">
    <path id="path760" d="m0 0c-2.096-3.531-3.971-7.208-6.504-10.458-0.81-1.04 0.645-2.517 1.465-1.464 2.648 3.398 4.636 7.184 6.828 10.876 0.684 1.152-1.108 2.193-1.789 1.046" fill="#0092d0"/>
   </g>
   <g id="g762" transform="matrix(.83826 0 0 -.83826 149.8 51.674)">
    <path id="path764" d="m0 0c0.045-3.366 0.813-6.483 2.037-9.608 0.481-1.23 2.485-0.695 1.998 0.55-1.157 2.953-1.92 5.872-1.964 9.058-0.018 1.335-2.089 1.336-2.071 0" fill="#0092d0"/>
   </g>
   <g id="g766" transform="matrix(.83826 0 0 -.83826 146.53 55.865)">
    <path id="path768" d="m0 0c2.941-0.687 5.937-0.702 8.941-0.703 1.336 0 1.336 2.071 0 2.072-2.817 0.001-5.631-0.015-8.39 0.629-1.3 0.303-1.852-1.694-0.551-1.998" fill="#0092d0"/>
   </g>
   <g id="g770" transform="matrix(.83826 0 0 -.83826 163.85 51.395)">
    <path id="path772" d="m0 0c-2.67-0.974-5.071-3.302-4.45-6.392 0.698-3.475 4.179-4.9 7.392-4.977 1.337-0.032 1.334 2.04 0 2.072-2.077 0.049-4.47 0.698-5.252 2.86-0.761 2.108 1.062 3.783 2.861 4.439 1.244 0.454 0.707 2.456-0.551 1.998" fill="#0092d0"/>
   </g>
   <g id="g774" transform="matrix(.83826 0 0 -.83826 174.47 54.188)">
    <path id="path776" d="m0 0c2.454-0.747 5.069-0.702 7.608-0.703 1.336 0 1.336 2.071 0 2.072-2.359 0.001-4.778-0.066-7.057 0.629-1.281 0.39-1.825-1.609-0.551-1.998" fill="#0092d0"/>
   </g>
   <g id="g778" transform="matrix(.83826 0 0 -.83826 176.05 60.335)">
    <path id="path780" d="m0 0c2.321 0.551 4.462 0.551 6.783 0 1.299-0.308 1.85 1.689 0.551 1.998-2.679 0.635-5.206 0.635-7.885 0-1.299-0.309-0.748-2.306 0.551-1.998" fill="#0092d0"/>
   </g>
   <g id="g782" transform="matrix(.83826 0 0 -.83826 194.26 43.541)">
    <path id="path784" d="m0 0c-9.026-0.48-11.454-18.155-1.814-19.256 8.768-1.001 8.83 16.104 2.337 19.115-1.204 0.558-2.257-1.228-1.046-1.789 4.477-2.075 5.252-13.229 0.202-15.184-6.398-2.478-8.082 14.595 0.321 15.043 1.329 0.071 1.335 2.142 0 2.071" fill="#0092d0"/>
   </g>
  </g>
  <g id="g7736" opacity=".60001" transform="matrix(.95711 0 0 -.95711 126.86 63.874)" fill="#40b4c6">
   <path id="path7738" d="m-10.942-36.781c-1.075 0.75502-2.3932 0.58698-3.585-0.29319-0.97313-0.71867-0.31584-1.4403-0.04708-2.1536 0.18592-0.49163 0.43919-0.95644 0.66206-1.4338 0.10726 0.01251 0.21512 0.02562 0.32358 0.03874 0.87242 1.2663 1.7442 2.5326 2.6465 3.8419m12.27 16.464c-0.13825 0.20202-0.19248 0.27114-0.23717 0.34682-0.92307 1.572-1.3325 1.6298-2.6268 0.38675-0.21572-0.20619-0.51725-0.33729-0.69305-0.5685-1.2061-1.5863-2.4087-3.175-3.5731-4.7924-0.92248-1.2812-1.805-2.5928-2.6685-3.9152-0.21751-0.33312-0.50772-1.0083-0.40165-1.0983 0.51964-0.44217 1.1352-0.81521 1.777-1.0423 0.20738-0.0733 0.67577 0.31047 0.89149 0.58817 0.67458 0.87063 1.2627 1.8068 1.9236 2.6876 1.8515 2.4677 3.7233 4.9217 5.6082 7.4072m9.3898 4.6499c-2.2585-0.03635-5.1654-1.3194-6.4228-2.9212-2.2448-2.8616-4.4717-5.7422-6.5718-8.7093-1.2508-1.7657-2.7501-3.3514-3.6387-5.4008-0.52023-1.1996-1.5625-2.1697-2.3437-3.2603-1.5726-2.1959-3.1435-4.3937-4.6869-6.6099-1.3873-1.9939-2.7144-4.0314-4.113-6.017-0.69126-0.98207-1.5762-1.8348-2.2132-2.8467-1.2866-2.0446-2.5148-4.1291-3.6714-6.2494-1.162-2.1298-2.1864-4.3323-2.5809-6.7619-0.19129-1.1769 0.58698-2.5702 1.5321-3.2382 1.569-1.1096 3.0892-2.2955 4.5683-3.5242 1.7025-1.4147 3.2585-3.0159 5.0224-4.3448 2.2424-1.6876 4.6195-3.1977 6.9579-4.756 1.8187-1.2121 3.6112-2.482 5.5176-3.5415 2.7454-1.5267 5.5736-2.9093 8.3887-4.3079 1.429-0.71033 2.8312-1.3152 4.5647-1.2913 2.5207 0.03397 4.5772 0.89506 6.0438 2.7913 1.7925 2.3163 3.3145 4.8424 4.9521 7.2779 2.0774 3.0922 4.1202 6.2071 6.241 9.2683 1.5029 2.1697 3.1703 4.2262 4.6571 6.4061 2.7937 4.0939 5.4055 8.2928 7.2761 12.919 1.1352 2.8068 2.5612 5.4943 3.1756 8.5007 0.41893 2.0535 0.32239 3.9432-1.2764 5.5104-1.6274 1.5947-3.2382 3.2078-4.8853 4.784-0.66743 0.63763-1.3772 1.2455-2.1286 1.7824-1.4606 1.0411-3.0171 1.954-4.436 3.0457-1.8032 1.3873-3.5052 2.9045-5.2595 4.355-0.3939 0.32596-0.82594 0.60545-1.2413 0.9052-1.7883 1.2919-3.5296 2.6566-5.3847 3.8431-0.87063 0.55718-1.9719 0.74251-2.9462 1.1495-1.7127 0.71629-3.3997 1.5106-5.0969 1.2413m13.167-63.38c-0.56374-0.16686-0.35293-0.49078-1.2646-2.0903-0.91168-1.5996-2.433-3.9403-4.1457-6.1333-1.904-2.4373-4.3841-3.9235-7.6212-3.7358-2.1757 0.12693-4.1929 0.69841-6.1069 1.8253-2.5571 1.5059-5.2578 2.7656-7.8351 4.2393-1.7103 0.97849-3.3187 2.1387-4.9628 3.2311-1.9469 1.2937-3.9569 2.5076-5.8072 3.9283-2.398 1.842-4.6618 3.8591-6.9913 5.7917-1.4034 1.1638-2.8085 2.327-4.2358 3.4611-1.9409 1.5422-2.4486 3.5427-1.5929 5.7637 0.92307 2.395 1.9927 4.7465 3.1786 7.0235 0.94751 1.8164 2.1161 3.5248 3.2757 5.2208 1.4379 2.106 2.982 4.1398 4.4479 6.2285 0.41297 0.58757 0.87719 1.2234 1.0125 1.8986 0.12633 0.6281-0.05185 1.3754-0.28008 2.0029-0.30034 0.82415-0.85335 1.5577-1.1477 2.3837-0.10428 0.29319 0.13408 0.82654 0.3796 1.106 1.4373 1.6346 3.3467 1.7174 5.3013 1.4201 0.5399-0.08224 0.84858-0.02145 1.1179 0.43979 0.438 0.75264 0.91652 1.4814 1.3617 2.2305 0.27293 0.45945 0.29617 0.89268-0.22526 1.2222-0.52619 0.33312-1.0208 0.72523-1.5738 1.0023-0.5548 0.2777-0.73178 0.6561-0.41535 1.1555 0.57983 0.91175 1.1936 1.805 1.839 2.6721 1.7758 2.3831 3.5588 4.7614 5.3775 7.1111 0.5113 0.65908 1.1245 1.2556 1.758 1.8015 0.55301 0.47494 1.5166 0.29557 2.1536-0.25624 0.43621-0.37781 0.90639-0.7157 1.2961-1.022 2.1203 2.3962 4.3907 4.3138 7.4781 4.5808 1.7687 0.15315 3.6267-0.03695 5.3454-0.83249 1.7007-0.7884 3.5511-1.2902 5.172-2.2067 1.6018-0.9052 2.9933-2.1787 4.4855-3.2799 1.2711-0.93797 2.5636-1.8497 3.8311-2.7925 0.9344-0.69364 1.8527-1.4105 2.765-2.1328 0.96419-0.76218 1.8122-1.752 2.889-2.2734 2.9563-1.4308 4.7989-4.1297 7.2678-6.1057 1.1066-0.88434 2.0374-2.0565 2.836-3.2418 1.025-1.5238 0.75145-3.3264 0.48865-5.0081-0.4958-3.1679-1.8158-6.0706-3.1917-8.9405-0.88911-1.8563-1.6513-3.7876-2.6971-5.5515-1.8795-3.1732-3.8675-6.2887-5.924-9.3505-2.0601-3.0666-4.2614-6.0384-6.3995-9.0531-0.93499-1.3188-1.8664-2.6393-2.6399-3.7334" fill-rule="evenodd" fill="#40b4c6"/>
  </g>
  <g id="g7740" opacity=".60001" transform="matrix(.57036 0 0 -.57036 162.58 105.12)" fill="#40b4c6">
   <path id="path7742" d="m0 0c-0.18 0.571-0.277 0.852-0.356 1.138-0.476 1.704-1.581 2.858-2.885 4.058-2.168 1.995-4.02 4.341-5.945 6.591-1.863 2.177-3.533 4.531-5.493 6.614-5.794 6.158-12.646 11.04-19.584 15.789-1.391 0.952-3.008 1.621-4.598 2.214-0.672 0.251-1.717 0.243-2.297-0.119-4.102-2.574-8.089-5.343-10.613-9.63-1.032-1.752-1.967-3.777-0.928-5.791 0.883-1.713 2.007-3.413 3.393-4.73 3.183-3.025 6.528-5.892 9.928-8.672 2.977-2.434 6.104-4.687 9.2-6.973 1.928-1.424 3.916-2.766 5.887-4.13 1.818-1.258 3.612-2.555 5.484-3.726 2.125-1.33 4.273-2.649 6.514-3.767 1.541-0.769 3.009-1.216 4.881 0.073 2.795 1.927 4.26 4.632 5.723 7.442 0.642 1.235 1.18 2.523 1.689 3.619m-55.547 22.131c0.401 2.665 0.861 4.937 2.786 6.683 0.891 0.81 1.333 2.119 2.231 2.917 2.43 2.159 4.879 4.337 7.552 6.17 1.689 1.159 3.714 1.107 5.769 0.189 4.381-1.959 7.988-5.023 11.729-7.883 3.704-2.832 7.329-5.787 10.81-8.887 2.233-1.99 4.277-4.233 6.164-6.559 2.568-3.167 5.217-6.235 8.156-9.066 0.93-0.895 1.624-2.055 2.333-3.155 1.114-1.733 0.42-3.499-0.332-5.053-1.134-2.341-2.338-4.723-3.951-6.737-1.481-1.85-3.403-3.442-5.388-4.762-1.796-1.196-3.879-0.486-5.582 0.532-5.522 3.3-11.068 6.579-16.41 10.158-4.176 2.798-8.523 5.399-11.885 9.338-1.724 2.019-4.171 3.403-6.134 5.243-2.447 2.296-4.877 4.645-7.007 7.226-0.761 0.923-0.623 2.586-0.841 3.646" fill-rule="evenodd" fill="#40b4c6"/>
  </g>
  <g id="g7744" opacity=".60001" transform="matrix(.57036 0 0 -.57036 152.81 120.55)" fill="#a3df4f">
   <path id="path7746" d="m0 0c-0.24-0.083-0.739-0.133-1.075-0.392-1.66-1.279-3.63-2.353-4.842-3.982-3.24-4.351-6.085-8.994-9.211-13.433-2.146-3.045-2.416-5.87 0.055-8.879 1.024-1.248 1.936-1.53 2.941-0.2 2.364 3.128 4.621 6.336 6.947 9.492 2.654 3.6 5.364 7.156 7.99 10.776 0.861 1.188 1.94 2.385 1.143 4.096-0.543 1.163-2.504 2.528-3.948 2.522m-19.831-21.913c0.894 1.735 1.653 3.603 2.746 5.248 2.668 4.02 5.485 7.944 8.259 11.896 1.517 2.16 3.208 4.122 5.488 5.577 2.343 1.496 4.992 1.455 7.161-0.195 1.358-1.034 2.134-2.466 2.753-3.905 0.31-0.72-0.052-1.977-0.522-2.736-1.025-1.656-2.328-3.137-3.491-4.71-1.668-2.259-3.32-4.531-4.968-6.805-2.658-3.667-5.336-7.32-7.95-11.018-1.07-1.512-2.666-1.729-4.249-1.818-0.53-0.03-1.311 0.554-1.616 1.07-0.886 1.497-1.599 3.099-2.361 4.666-0.39 0.801-0.743 1.619-1.25 2.73" fill-rule="evenodd" fill="#a3df4f"/>
  </g>
  <g id="g7748" opacity=".60001" transform="matrix(.57036 0 0 -.57036 125.96 138.41)" fill="#040c19">
   <path id="path7750" d="m0 0c0.605-0.843 0.95-1.704 1.584-2.132 1.662-1.119 3.451-2.048 5.188-3.054 1.04-0.601 2.051-1.261 3.124-1.793 1.637-0.811 3.412-1.379 4.961-2.324 3.506-2.137 3.61-2.208 6.435 0.801 0.612 0.65 1.137 1.425 1.541 2.224 1.602 3.17 1.459 3.853-1.16 6.234-0.596 0.541-1.234 1.042-1.888 1.511-3.871 2.776-7.755 5.533-11.628 8.304-0.95 0.681-1.688 0.381-2.348-0.436-0.913-1.128-1.971-2.166-2.714-3.396-1.108-1.834-1.996-3.801-3.095-5.939m18.043-13.65c-1.13 0.452-2.382 0.631-3.177 1.329-2.866 2.516-6.543 3.499-9.707 5.423-1.895 1.153-3.826 2.292-5.547 3.675-1.399 1.125-1.815 2.868-1.088 4.539 0.947 2.184 2.072 4.302 3.266 6.365 0.701 1.21 1.548 2.407 2.574 3.341 1.581 1.438 3.864 1.482 5.539 0.249 4.487-3.304 9.023-6.554 13.347-10.062 1.325-1.075 2.151-2.856 2.938-4.446 0.27-0.547-0.096-1.603-0.479-2.243-1.561-2.612-2.663-5.599-5.445-7.287-0.633-0.383-1.391-0.56-2.221-0.883" fill-rule="evenodd" fill="#040c19"/>
  </g>
  <g id="g7752" opacity=".60001" transform="matrix(.57036 0 0 -.57036 124.59 127.95)" fill="#40b4c6">
   <path id="path7754" d="m0 0c-1.757 0.695-3.27 1.222-4.717 1.889-1.3 0.598-2.459 1.179-3.964 0.38-1.404-0.748-2.181-1.924-2.835-3.22-0.658-1.302-1.121-2.7-1.725-4.032-1.131-2.502-1.608-4.835 0.725-7.062 1.377-1.313 2.583-1.817 4.13-0.708 4.373 3.136 7.247 7.294 8.386 12.753m-9.753-15.638c-2.497-0.303-3.526 1.575-4.837 3.096-0.54 0.627-1.36 1.006-1.951 1.6-0.315 0.316-0.689 0.96-0.566 1.269 1.46 3.673 3.138 7.264 4.491 10.975 1.001 2.744 3.122 3.367 5.553 3.426 0.933 0.023 1.891-0.625 2.822-1.008 0.828-0.341 1.6-0.877 2.456-1.083 2.737-0.657 4.374-3.433 3.285-6.017-1.702-4.041-4.259-7.555-7.374-10.6-0.977-0.957-2.493-1.359-3.763-2.015-0.038 0.12-0.077 0.239-0.116 0.357" fill-rule="evenodd" fill="#40b4c6"/>
  </g>
  <g id="g7756" opacity=".60001" transform="matrix(.57036 0 0 -.57036 131.86 111.11)" fill="#40b4c6">
   <path id="path7758" d="m0 0c0.358-0.766 0.496-1.465 0.913-1.88 1.6-1.591 3.358-3.025 4.915-4.654 0.705-0.737 1.243-0.598 1.974-0.269 2.797 1.256 4.564 3.644 6.13 6.061 0.881 1.358 1.722 3.213 0.329 4.908-0.952 1.156-1.938 2.306-3.044 3.31-1.616 1.469-2.545 1.338-4.458 0.303-2.115-1.145-3.459-3.016-4.948-4.747-0.75-0.873-1.207-1.997-1.811-3.032m-2.39-0.295c0.345 0.862 0.495 1.442 0.787 1.939 1.575 2.679 3.546 5.012 6.115 6.804 0.287 0.199 0.568 0.433 0.78 0.706 2.285 2.947 5.442 2.362 7.635-0.478 0.64-0.829 1.406-1.562 2.101-2.349 2.6-2.94 2.418-4.81 0.517-7.766-1.523-2.368-3.551-4.475-5.627-6.407-2.432-2.263-3.836-2.18-6.014-0.04-1.457 1.431-3.077 2.713-4.412 4.245-0.847 0.974-1.304 2.287-1.882 3.346" fill-rule="evenodd" fill="#40b4c6"/>
  </g>
  <path id="path7762" opacity=".60001" d="m123.64 104.08c0.18707 0.42948 0.2618 0.8196 0.48766 1.0786 0.57949 0.6639 1.2069 1.2896 1.8502 1.8936 0.85383 0.80021 1.2639 0.85725 2.1497 0.085 1.0078-0.87835 2.0048-1.7989 2.8432-2.833 1.232-1.5217 0.55838-4.0159-1.2651-4.7785-0.45172-0.1888-1.2029-0.15456-1.5998 0.10716-1.3033 0.85954-2.6961 1.65-3.6178 2.9773-0.31597 0.45457-0.55723 0.96105-0.84812 1.4698m3.3434 5.1247c-0.57834-0.30515-1.0768-0.45059-1.4116-0.76771-0.95308-0.90059-1.909-1.816-2.7343-2.8313-0.84927-1.0443-0.38728-2.2187 0.2789-3.0862 0.82759-1.0785 1.9187-1.958 2.9242-2.8928 0.39755-0.36959 0.85554-0.67987 1.3135-0.9776 1.3711-0.89317 2.9402-0.61826 3.9229 0.70611 0.56066 0.75515 1.2325 1.4949 1.5314 2.3539 0.21217 0.6097 0.0856 1.5217-0.2424 2.0978-0.91086 1.5999-2.0607 3.0446-3.6303 4.0883-0.65535 0.43631-1.3078 0.87662-1.9523 1.3095" fill-rule="evenodd" fill="#ff3829"/>
  <g id="g7764" opacity=".60001" transform="matrix(.57036 0 0 -.57036 133.55 127.37)" fill="#40b4c6">
   <path id="path7766" d="m0 0c0.042-0.212 0.024-0.603 0.192-0.883 1.19-1.988 3.2-2.86 5.184-3.796 1.925-0.907 3.442-0.165 4.785 1.099 1.13 1.062 2.141 2.255 3.158 3.429 1.306 1.505 1.756 3.2 0.226 4.736-1.542 1.548-3.251 2.957-5.035 4.214-0.479 0.338-1.636 0.131-2.247-0.226-1.206-0.706-2.358-1.586-3.337-2.585-1.576-1.608-2.65-3.54-2.926-5.988m6.853-7.773c-2.787 1.256-5.411 2.079-7.268 4.156-0.733 0.82-1.168 1.936-1.624 2.97-1.073 2.436 0.736 4.171 1.794 5.905 1.552 2.544 3.703 4.679 6.768 5.394 0.909 0.212 2.204 0.237 2.873-0.258 2.236-1.654 4.808-2.942 6.308-5.499 0.92-1.568 1.296-3.72-0.051-5.166-1.709-1.833-3.155-3.932-4.985-5.624-1.024-0.948-2.597-1.305-3.815-1.878" fill-rule="evenodd" fill="#40b4c6"/>
  </g>
  <g id="g7768" opacity=".60001" transform="matrix(.57036 0 0 -.57036 114.24 113.38)" fill="#604cb5">
   <path id="path7770" d="m0 0c0.116-0.079 0.234-0.158 0.351-0.237-0.08-1.341 0.769-2.075 1.816-2.674 1.007-0.576 2.052-1.092 3.021-1.726 1.52-0.995 3.952-0.741 4.965 0.718 0.943 1.356 1.773 2.798 2.566 4.25 1.113 2.04 0.861 3.381-0.755 4.975-0.638 0.628-1.252 1.29-1.823 1.979-1.699 2.052-3.094 2.168-4.995 0.255-1.021-1.027-2.019-2.115-2.825-3.311-0.894-1.329-1.557-2.812-2.321-4.229m15.758 2.448c-1.155-3.541-2.76-6.343-5.472-8.393-3.293-2.49-3.591-2.44-6.95-0.004-0.648 0.47-1.41 0.78-2.107 1.185-3.476 2.017-3.75 3.357-2.52 6.76 1.19 3.293 3.651 5.722 5.979 8.194 1.276 1.355 3.356 1.327 4.937 0.082 1.609-1.266 3.311-2.5 4.608-4.051 0.857-1.027 1.074-2.588 1.525-3.773" fill-rule="evenodd" fill="#604cb5"/>
  </g>
  <g id="g7772" opacity=".60001" transform="matrix(.57036 0 0 -.57036 113.55 120.68)" fill="#e94c0f">
   <path id="path7774" d="m0 0c0.11 0.164 0.22 0.327 0.33 0.49-1.138 0.82-2.29 1.62-3.408 2.466-1.186 0.898-2.154 0.552-3.264-0.258-2.613-1.908-3.983-4.695-5.104-7.513-0.826-2.079-1.279-4.415 0.969-6.315 2.103-1.777 4.515-1.703 6.16 0.445 0.518 0.678 1.241 1.206 1.715 1.906 0.926 1.37 1.893 2.747 2.553 4.248 0.445 1.011 0.935 2.449-1.119 2.658-0.384 0.04-0.728 0.477-1.441 0.977 1.071 0.369 1.84 0.632 2.609 0.896m-14.152-9.126c0.164 3.278 0.866 5.688 2.362 7.949 1.566 2.366 2.984 4.805 5.577 6.204 0.424 0.23 1.046 0.412 1.471 0.279 3.714-1.165 6.403-3.456 7.443-7.316 0.148-0.547-0.411-1.254-0.528-1.907-0.773-4.32-4.095-6.933-6.812-9.875-1.149-1.243-3.059-0.621-4.584-0.063-1.168 0.427-2.531 0.786-3.333 1.627-0.894 0.937-1.252 2.388-1.596 3.102" fill-rule="evenodd" fill="#e94c0f"/>
  </g>
  <g id="g7776" opacity=".60001" transform="matrix(.57036 0 0 -.57036 141.62 117.06)" fill="#40b4c6">
   <path id="path7778" d="m0 0c0.412-0.627 0.767-1.57 1.442-2.108 1.281-1.02 2.804-1.734 4.119-2.719 1.084-0.811 2.071-0.724 3.016 0.025 2.289 1.818 3.896 4.157 4.88 6.901 0.23 0.643 0.361 1.39 0.287 2.062-0.171 1.553-4.965 4.419-6.355 3.694-2.865-1.494-5.471-3.359-6.965-6.382-0.173-0.348-0.223-0.758-0.424-1.473m-2.313 0.283c0.271 0.793 0.35 1.747 0.852 2.349 1.7 2.043 3.396 4.137 5.383 5.882 2.42 2.126 4.173 1.916 7.236 0.427 1.336-0.649 2.657-1.58 3.598-2.705 0.643-0.767 1.006-2.165 0.825-3.16-0.8-4.408-3.364-7.715-6.969-10.296-1.408-1.009-2.618-0.381-3.771 0.319-1.798 1.089-3.517 2.31-5.26 3.488-1.285 0.868-1.725 2.148-1.894 3.696" fill-rule="evenodd" fill="#40b4c6"/>
  </g>
  <g id="g7780" opacity=".60001" transform="matrix(.57036 0 0 -.57036 124.14 120.09)" fill="#40b4c6">
   <path id="path7782" d="m0 0c0.7-0.794 1.168-1.643 1.886-2.08 1.757-1.063 3.676-1.859 5.439-2.917 1.032-0.619 1.84-0.427 2.592 0.265 0.73 0.672 1.422 1.416 1.993 2.224 2.994 4.241 1.973 8.057-2.687 10.209-0.137 0.062-0.292 0.129-0.435 0.123-0.767-0.03-1.71 0.188-2.265-0.179-1.625-1.075-3.262-2.23-4.567-3.654-0.891-0.972-1.231-2.448-1.956-3.991m15.691 3.145c0.164-3.51-2.961-8.739-5.954-10.207-1.391-0.682-2.619-0.242-3.855 0.41-1.625 0.858-3.221 1.791-4.908 2.508-2.016 0.857-3.088 2.965-2.44 5.119 0.107 0.359-0.109 0.84 0.049 1.152 0.532 1.054 1.032 2.169 1.788 3.053 1.024 1.198 2.325 2.154 3.41 3.306 1.597 1.697 4.291 2.163 6.24 0.913 1.348-0.864 2.709-1.729 3.948-2.737 1.122-0.914 1.873-2.121 1.722-3.517" fill-rule="evenodd" fill="#40b4c6"/>
  </g>
 </g>
</svg>
