<?xml version="1.0" encoding="UTF-8" standalone="no"?>
<!-- Created with Inkscape (http://www.inkscape.org/) -->
<svg id="svg6035" xmlns:rdf="http://www.w3.org/1999/02/22-rdf-syntax-ns#" xmlns="http://www.w3.org/2000/svg" height="38.628mm" width="45.589mm" version="1.1" xmlns:cc="http://creativecommons.org/ns#" xmlns:dc="http://purl.org/dc/elements/1.1/" viewBox="0 0 161.53684 136.87241">
 <metadata id="metadata6040">
  <rdf:RDF>
   <cc:Work rdf:about="">
    <dc:format>image/svg+xml</dc:format>
    <dc:type rdf:resource="http://purl.org/dc/dcmitype/StillImage"/>
    <dc:title/>
   </cc:Work>
  </rdf:RDF>
 </metadata>
 <g id="layer1" transform="translate(-54.946 -25.355)">
  <g>
   <g id="g730" transform="matrix(.88285 0 0 -.88285 109.93 146.33)">
    <path id="path732" d="m0 0c3.851-1.955 7.98-4.165 11.124-7.172 0.964-0.923 2.431 0.54 1.464 1.465-3.278 3.136-7.526 5.457-11.542 7.496-1.189 0.603-2.237-1.184-1.046-1.789"/>
   </g>
   <path id="path736" d="m119.16 144.31c-2.4066 2.4376-4.5581 5.1029-6.6169 7.8353-0.7107 0.94286 0.87842 1.8531 1.5795 0.92329 1.9652-2.6079 4.0346-5.1399 6.3309-7.4653 0.829-0.83959-0.46437-2.1338-1.2934-1.2934"/>
   <g id="g738" transform="matrix(.88285 0 0 -.88285 123.34 138.21)">
    <path id="path740" d="m0 0c0.835 0.099 2.723 0.437 3.13-0.623 0.462-1.199-0.762-2.891-1.358-3.818-0.438-0.683 0.142-1.54 0.895-1.559 2.336-0.058 4.639-0.592 6.942 0.037 1.287 0.351 0.741 2.35-0.55 1.998-2.092-0.572-4.268-0.016-6.392 0.036 0.298-0.519 0.596-1.039 0.895-1.558 1.025 1.598 2.214 3.732 1.466 5.675-0.772 2.007-3.225 2.097-5.028 1.883-1.31-0.155-1.325-2.228 0-2.071"/>
   </g>
   <g id="g750" transform="matrix(.88285 0 0 -.88285 136.63 137.25)">
    <path id="path752" d="m0 0c1.287-5.397 1.947-10.892 2.63-16.391 0.134-1.077 1.745-1.507 2.035-0.275 0.49 2.08 2.608 7.475 4.289 3.013 1.542-4.093-3.073-3.879-5.68-3.073-1.279 0.396-1.822-1.604-0.55-1.998 2.449-0.757 5.659-1.389 7.591 0.788 1.283 1.446 1.155 3.742 0.412 5.401-0.671 1.499-2.103 3.121-3.934 2.767-2.716-0.525-3.597-4.1-4.126-6.347l2.035-0.276c-0.706 5.682-1.375 11.365-2.704 16.942-0.31 1.299-2.308 0.748-1.998-0.551"/>
   </g>
   <g id="g754" transform="matrix(.88285 0 0 -.88285 151.97 147.89)">
    <path id="path756" d="m0 0c3.54-1.474 6.804-3.73 9.543-6.399 0.957-0.933 2.423 0.531 1.465 1.464-3.013 2.937-6.573 5.316-10.457 6.933-1.233 0.513-1.765-1.492-0.551-1.998"/>
   </g>
   <g id="g758" transform="matrix(.88285 0 0 -.88285 160.25 144.2)">
    <path id="path760" d="m0 0c-2.096-3.531-3.971-7.208-6.504-10.458-0.81-1.04 0.645-2.517 1.465-1.464 2.648 3.398 4.636 7.184 6.828 10.876 0.684 1.152-1.108 2.193-1.789 1.046"/>
   </g>
  </g>
  <g id="g836" fill="#7ada00" transform="matrix(1.0778 .28880 .28880 -1.0778 133.52 124.96)">
   <path id="path838" d="m0 0c1.045-0.279 2.296-0.062 3.59 0.169-0.475-2.75-0.979-5.669-2.023-8.253-0.804 2.588-1.211 5.392-1.567 8.084m-2.018 74.783c2.336-0.116 3.748-0.414 4.053-3.214 0.243-2.238 0.473-4.478 0.697-6.719 0.528-5.244 0.971-10.495 1.346-15.751 0.767-10.747 1.066-21.529 0.663-32.298-0.172-4.616-0.563-9.219-1.098-13.806-0.241-2.05-3.958-1.227-4.037 0.73-0.125 3.157-0.243 6.314-0.359 9.471-0.429 11.628-0.812 23.259-1.103 34.892-0.22 8.815-0.84 17.873-0.162 26.695m1.589 8.724c2.029 0.209 2.463-2.225 2.419-3.76-1.393 0.54-3.056 0.399-4.59 0.192-0.016 1.478 0.441 3.389 2.171 3.568m-2.377-6.694c0.019 0.369 0.058 0.74 0.104 1.107 2.087 0.285 5.275 0.6 5.131-1.971-1.756 0.508-3.386 0.778-5.235 0.864m6.535-2.464c0.285 0.076 0.526 0.279 0.593 0.676 0.257 1.512 0.044 2.823-0.851 3.763 0.277 0.15 0.496 0.412 0.515 0.815 0.135 2.734-1.091 5.839-4.235 5.911-3.132 0.071-4.522-3.324-4.342-5.959 0.009-0.129 0.049-0.235 0.092-0.337-0.062-0.14-0.107-0.285-0.115-0.422-0.066-1.19-0.312-2.368-0.066-3.55 0.083-0.402 0.341-0.604 0.637-0.677-1.218-15.389 0.275-31.346 0.779-46.721 0.236-7.202 0.495-14.404 0.773-21.604 0.042-1.087-0.13-2.446 0.163-3.51 0.081-0.293 0.175-0.55 0.276-0.79-0.094-0.181-0.155-0.386-0.122-0.629 0.564-4.142 1.091-8.601 2.755-12.463 0.309-0.716 1.381-0.585 1.727 0 2.176 3.681 2.75 8.388 3.518 12.527 0.071 0.383-0.068 0.687-0.288 0.907 2.942 23.922 0.82 48.207-1.809 72.063" fill="#7ada00"/>
  </g>
 </g>
</svg>
