<?xml version="1.0" encoding="UTF-8" standalone="no"?>
<!-- Created with Inkscape (http://www.inkscape.org/) -->
<svg id="svg6035" xmlns:rdf="http://www.w3.org/1999/02/22-rdf-syntax-ns#" xmlns="http://www.w3.org/2000/svg" height="38.628mm" width="45.589mm" version="1.1" xmlns:cc="http://creativecommons.org/ns#" xmlns:dc="http://purl.org/dc/elements/1.1/" viewBox="0 0 161.53684 136.87241">
 <metadata id="metadata6040">
  <rdf:RDF>
   <cc:Work rdf:about="">
    <dc:format>image/svg+xml</dc:format>
    <dc:type rdf:resource="http://purl.org/dc/dcmitype/StillImage"/>
    <dc:title/>
   </cc:Work>
  </rdf:RDF>
 </metadata>
 <g id="layer1" transform="translate(-54.946 -25.355)">
  <g id="g3587" transform="translate(4.0342 -.31030)">
   <path id="path400" d="m-154.41 337.62c0.49376 0.003 1.0289 0 1.4998 0.16979 0.0912 0.0325 0.17939 0.0738 0.26818 0.11277 0.0949 0.0407-0.12479-0.0433 0.0479 0.0145 0.16499 0.0546 0.25198 0.0456 0.48355 0.0479 0.80091 0.008 0.80212 1.2509 0 1.2425-0.40075-0.003-0.75412-0.0582-1.1213-0.21538-0.0883-0.0384 0.11818 0.0414-0.0546-0.0203-0.0756-0.027-0.1542-0.0444-0.23278-0.0606-0.28797-0.0606-0.59933-0.0462-0.89091-0.0486-0.80092-0.004-0.80152-1.2473 0-1.2425" transform="matrix(.75102 0 0 -.75102 190.47 391.69)" fill="#0e799e"/>
   <g id="g418" transform="matrix(.45057 0 0 -.45057 81.653 134.3)">
    <path id="path420" d="m0 0c9.208 5.064 17.954 12.89 26.701 19.335 9.667 6.445 19.335 14.271 28.081 22.097 10.862-1.918 20.716-1.381 29.463-2.302 10.128-0.921 20.716-1.381 30.843-1.381 10.589 0 21.177 0.92 31.765 1.381 5.984 0.46 18.414 0.921 18.414 0.921s10.128-6.445 15.191-10.128c14.731-9.668 29.924-18.414 42.813-30.383-5.984-8.747-18.414-16.112-27.16-21.638-9.207-5.523-18.593-12.427-28.72-15.65-10.128-3.684-26.766-2.65-36.05-2.236-10.159 0.455-34.437 1.646-46.405 2.451-15.165 1.021-22.788-5.28-35.678 3.008-17.492 11.046-34.065 21.175-49.257 34.525" fill="#43af4a"/>
   </g>
   <g id="g422" transform="matrix(.45057 0 0 -.45057 81.896 134.42)">
    <path id="path424" d="m0 0c5.185 19.014 16.793 35.238 26.116 52.344 4.775 8.762 8.904 17.832 13.833 26.522 5.129 9.043 10.611 17.882 15.951 26.799 21.016 35.094 34.537 74.313 57.703 108.15-0.543-0.069-1.085-0.139-1.627-0.209 5.808-7.208 8.737-15.864 12.338-24.265 3.782-8.821 8.438-17.24 13.04-25.652 9.807-17.926 18.521-36.432 28.271-54.404 9.895-18.236 19.988-36.356 29.325-54.888 9.35-18.56 18.187-37.374 27.348-56.027 0.124 0.473 0.248 0.945 0.372 1.418-8.192-5.577-15.448-12.362-23.5-18.127-7.707-5.516-16.563-10.14-24.849-14.763-9.913-5.532-21.228-5.53-32.293-5.676-11.807-0.158-23.616 0.56-35.401 1.187-9.53 0.508-19.064 0.861-28.602 1.171-8.205 0.266-17.104-0.316-25.073 1.831-4.527 1.22-8.367 4.316-12.186 6.883-4.532 3.045-8.954 6.254-13.37 9.462-9.156 6.651-18.233 13.437-27.865 19.409-1.139 0.706-2.178-1.087-1.046-1.789 9.631-5.971 18.719-12.747 27.872-19.413 7.776-5.663 15.888-12.739 24.952-16.197 7.43-2.834 16.662-1.923 24.456-2.187 10.294-0.348 20.583-0.702 30.869-1.245 11.794-0.623 23.586-1.261 35.401-1.189 9.66 0.06 20.382-0.123 29.345 3.987 4.105 1.882 7.917 4.24 11.751 6.614 4.685 2.9 9.648 5.291 14.302 8.236 9.321 5.898 17.18 13.812 26.289 20.013 0.493 0.335 0.635 0.883 0.372 1.417-9.162 18.653-18.028 37.451-27.348 56.027-9.596 19.124-20.049 37.791-30.25 56.594-9.739 17.951-18.445 36.426-28.242 54.336-4.789 8.752-9.497 17.54-13.287 26.78-3.165 7.719-6.234 15.359-11.52 21.918-0.447 0.555-1.285 0.289-1.627-0.21-23.493-34.33-37.316-74.12-58.64-109.73-5.34-8.919-10.782-17.775-15.911-26.818-4.899-8.636-8.977-17.674-13.724-26.385-9.164-16.815-20.434-32.69-25.533-51.386-0.352-1.291 1.647-1.838 1.998-0.551" fill="#0e799e"/>
   </g>
   <g id="g426" transform="matrix(.45057 0 0 -.45057 132.44 38.345)">
    <path id="path428" d="m0 0c-7.857-42.686-21.927-83.84-31.699-126.06-4.825-20.851-7.693-42.125-12.26-63.042-2.273-10.413-5.117-20.697-7.679-31.041-2.272-9.175-5.917-18.112-7.636-27.391-0.243-1.305 1.753-1.863 1.997-0.55 1.613 8.703 5.124 16.964 7.194 25.577 2.491 10.366 5.32 20.647 7.713 31.038 4.808 20.876 7.708 42.102 12.257 63.024 4.657 21.42 10.898 42.734 16.781 63.851 5.894 21.152 11.353 42.443 15.33 64.048 0.24 1.296-1.756 1.853-1.998 0.541" fill="#0e799e"/>
   </g>
   <g id="g430" transform="matrix(.45057 0 0 -.45057 132.23 38.801)">
    <path id="path432" d="m0 0c2.106-10.084 5.482-19.852 7.303-30 0.971-5.411 1.46-10.773 2.744-16.144 1.246-5.216 2.761-10.358 3.881-15.606 2.234-10.478 3.722-21.115 6.012-31.596 2.406-11.004 5.107-21.942 7.766-32.886 5.334-21.959 10.997-43.933 15.216-66.138 1.907-10.035 2.966-20.287 5.681-30.149 2.348-8.532 2.798-18.322 6.908-26.22 0.616-1.186 2.405-0.138 1.789 1.045-2.127 4.089-2.907 8.481-3.648 12.98-0.821 4.985-2.196 9.636-3.533 14.493-2.712 9.854-3.654 20.268-5.56 30.301-4.214 22.176-9.971 44.127-15.297 66.056-5.057 20.818-9.281 41.643-13.337 62.664-1.945 10.081-4.744 19.785-6.342 29.954-1.696 10.799-5.355 21.126-7.586 31.803-0.273 1.307-2.269 0.752-1.997-0.551" fill="#0e799e"/>
   </g>
   <g id="g434" transform="matrix(.45057 0 0 -.45057 106.71 114.38)">
    <path id="path436" d="m0 0c9.04 26.147 13.441 34.972 18.965 53.846 7.826 26.7 15.837 50.603 24.246 76.727 3.624 11.26 7.366 23.938 14.424 37.441" stroke="#0e799e" stroke-linecap="round" stroke-miterlimit="10" stroke-dasharray="7.366" stroke-width="1.841" fill="none"/>
   </g>
   <g id="g438" transform="matrix(.45057 0 0 -.45057 132.89 38.469)">
    <path id="path440" d="m0 0c-0.421 2.314 3.284-8.164 7.366-20.408 1.841-5.064 3.682-8.134 5.063-13.658 3.223-11.049 6.453-21.127 10.129-32.378 7.835-23.982 7.853-23.715 15.65-49.235 2.743-8.98 5.165-20.381 7.904-29.89 1.825-6.333 2.89-15.503 4.987-23.994" stroke="#0e799e" stroke-linecap="round" stroke-miterlimit="10" stroke-dasharray="7.366" stroke-width="1.841" fill="none"/>
   </g>
   <g id="g442" transform="matrix(.45057 0 0 -.45057 132.68 40.128)">
    <path id="path444" d="m0 0c0.102-1.227 0.196-2.451 0.281-3.672" stroke="#0e799e" stroke-linecap="round" stroke-miterlimit="10" stroke-width="1.841" fill="none"/>
   </g>
   <g id="g446" transform="matrix(.45057 0 0 -.45057 132.99 45.009)">
    <path id="path448" d="m0 0c0.8-18.252-0.222-36.074-2.53-54.538-1.381-11.969 0.461-24.859 1.381-36.368 1.381-13.81-0.46-29.155 1.381-42.966 1.381-13.35 0-22.864-0.46-39.437-0.219-7.892-0.904-15.311-0.979-23.571" stroke="#0e799e" stroke-linecap="round" stroke-miterlimit="10" stroke-dasharray="7.171, 7.171" stroke-width="1.841" fill="none"/>
   </g>
   <g id="g450" transform="matrix(.45057 0 0 -.45057 132.45 135.33)">
    <path id="path452" d="m0 0c0.017-1.206 0.049-2.432 0.1-3.682" stroke="#0e799e" stroke-linecap="round" stroke-miterlimit="10" stroke-width="1.841" fill="none"/>
   </g>
   <g id="g454" transform="matrix(.45057 0 0 -.45057 133.54 34.86)">
    <path id="path456" d="m0 0c0.973 4.108 2.629 7.95 4.5 11.722h-1.79c1.438-2.321 2.051-5.205 2.775-7.809 0.325-1.165 0.554-3.826 1.74-4.532 1.151-0.685 2.192 1.106 1.046 1.789 0.343-0.205 0.294-0.374 0.137 0.076-0.158 0.448-0.281 0.911-0.411 1.368-0.325 1.138-0.632 2.281-0.956 3.419-0.646 2.271-1.287 4.709-2.541 6.735-0.386 0.621-1.431 0.723-1.79 0-1.946-3.927-3.695-7.939-4.707-12.217-0.308-1.3 1.689-1.851 1.997-0.551" fill="#0e799e"/>
   </g>
   <g id="g458" transform="matrix(.45057 0 0 -.45057 133.59 33.526)">
    <path id="path460" d="m0 0c1.912-0.442 3.846-0.496 5.8-0.497 1.336-0.001 1.336 2.071 0 2.071-1.769 0.001-3.517 0.023-5.249 0.424-1.301 0.3-1.852-1.697-0.551-1.998" fill="#0e799e"/>
   </g>
   <g id="g462" transform="matrix(.45057 0 0 -.45057 186.39 133.29)">
    <path id="path464" d="m0 0c1.945 2.649 9.872-4.515 2.053-6.305-1.149-0.262-0.885-2.053 0.275-2.034 1.499 0.025 3.697-0.078 3.768-2.036 0.061-1.71-1.828-3.065-3.204-3.618-0.916-0.368-1.888-0.388-2.855-0.346-1.229 0.053-0.949 3.847-0.995 4.769-0.167 3.311 0.253 6.612 1.062 9.818 0.328 1.295-1.67 1.845-1.998 0.55-1.354-5.36-1.405-10.763-0.497-16.203 0.056-0.33 0.404-0.656 0.724-0.724 3.565-0.76 8.247 0.324 9.535 4.24 1.278 3.889-2.138 5.679-5.54 5.621l0.276-2.034c10.999 2.517 0.198 15.598-4.393 9.348-0.792-1.079 1.007-2.11 1.789-1.046" fill="#0e799e"/>
   </g>
   <g id="g466" transform="matrix(.45057 0 0 -.45057 159.31 154.5)">
    <path id="path468" d="m0 0c-2.563-2.687-3.625-6.925-0.207-9.446 3.325-2.451 7.595-1.061 9.958 1.997 0.806 1.043-0.648 2.52-1.464 1.465-1.689-2.185-4.346-3.5-6.949-2.019-2.754 1.566-1.619 4.709 0.127 6.538 0.922 0.966-0.541 2.433-1.465 1.465" fill="#0e799e"/>
   </g>
   <g id="g470" transform="matrix(.45057 0 0 -.45057 102.69 153.21)">
    <path id="path472" d="m0 0c2.981-0.895 6.612-3.397 5.078-6.995-1.516-3.556-5.75-2.901-8.423-1.24 0.124-0.473 0.248-0.946 0.372-1.417 1.412 3.219 3.13 6.271 5.064 9.207 0.737 1.119-1.058 2.155-1.789 1.045-1.934-2.935-3.651-5.987-5.064-9.207-0.232-0.528-0.15-1.093 0.371-1.417 3.743-2.325 9.051-2.483 11.258 1.983 2.385 4.827-2.077 8.766-6.316 10.039-1.283 0.385-1.827-1.614-0.551-1.998" fill="#0e799e"/>
   </g>
   <g id="g474" transform="matrix(.45057 0 0 -.45057 74.394 135.18)">
    <path id="path476" d="m0 0c2.33 0.093 4.578 0.827 6.905 0.921 1.33 0.053 1.34 2.103 0 2.071-2.433-0.058-4.798-0.483-7.18-0.957-0.488-0.098-0.706-0.561-0.761-0.999-0.474-3.835-0.906-7.675-1.381-11.509-0.051-0.413 0.351-0.936 0.761-0.999 2.336-0.358 5.195-0.243 7.479 0.451 0.775 0.235 1.123 1.514 0.248 1.893l-0.024 0.01c-1.212 0.526-2.268-1.258-1.046-1.789 0.008-0.003 0.017-0.007 0.024-0.01 0.083 0.631 0.165 1.262 0.247 1.894-1.904-0.58-4.416-0.752-6.377-0.451l0.76-0.999c0.475 3.834 0.906 7.674 1.381 11.509l-0.761-0.999c2.201 0.438 4.38 0.83 6.63 0.884v2.071c-2.329-0.093-4.578-0.827-6.905-0.921-1.331-0.053-1.336-2.125 0-2.071" fill="#0e799e"/>
   </g>
   <g id="g686" transform="matrix(.45057 0 0 -.45057 164.9 39.261)">
    <path id="path688" d="m0 0c14.589-0.026 29.293-0.732 43.775 1.417 1.318 0.196 0.756 2.192-0.55 1.999-14.287-2.122-28.835-1.37-43.225-1.345-1.336 0.003-1.336-2.069 0-2.071" fill="#0e799e"/>
   </g>
   <g id="g690" transform="matrix(.45057 0 0 -.45057 166.01 43.383)">
    <path id="path692" d="m0 0c2.016-5.222 4.504-10.197 7.012-15.196 0.439-0.875 1.605-0.518 1.893 0.248 2.224 5.915 1.981 12.474 1.975 18.697l-1.036-1.036c9.936-0.247 19.905 0.298 29.824-0.468 1.333-0.103 1.323 1.969 0 2.071-9.919 0.766-19.888 0.222-29.824 0.468-0.565 0.014-1.036-0.481-1.036-1.035 0.005-6.049 0.259-12.4-1.901-18.146 0.631 0.082 1.263 0.165 1.894 0.247-2.429 4.839-4.851 9.644-6.803 14.701-0.476 1.232-2.479 0.697-1.998-0.551" fill="#0e799e"/>
   </g>
   <g id="g694" transform="matrix(.45057 0 0 -.45057 175.34 46.452)">
    <path id="path696" d="m0 0c3.237-2.574 6.568-5.036 9.979-7.375 1.105-0.758 2.14 1.038 1.045 1.789-3.264 2.239-6.461 4.587-9.559 7.051-1.034 0.822-2.511-0.633-1.465-1.465" fill="#0e799e"/>
   </g>
   <g id="g698" transform="matrix(.45057 0 0 -.45057 179.6 45.858)">
    <path id="path700" d="m0 0c-3.317-2.406-6.104-4.823-8.808-7.902-0.878-0.999 0.582-2.471 1.465-1.465 2.585 2.945 5.214 5.276 8.388 7.578 1.07 0.776 0.038 2.575-1.045 1.789" fill="#0e799e"/>
   </g>
   <g id="g702" transform="matrix(.45057 0 0 -.45057 175.8 30.322)">
    <path id="path704" d="m0 0c-5.474 4.645-11.174-3.831-8.662-8.885 0.981-1.976 3.522-1.535 5.022-0.565 2.997 1.941 3.879 5.983 3.96 9.289 0.033 1.342-2.002 1.326-2.072 0-0.197-3.768 1.522-8.1 5.206-9.655 3.476-1.469 5.05 1.916 5.151 4.822 0.046 1.336-2.025 1.332-2.072 0-0.1-2.899-1.596-3.895-3.822-1.878-1.858 1.684-2.518 4.298-2.391 6.711h-2.072c-0.055-2.256-0.479-4.335-1.724-6.242-0.561-0.86-2.027-2.306-3.178-1.691-2.124 1.136 1.172 10.038 5.189 6.629 1.012-0.859 2.486 0.599 1.465 1.465" fill="#0e799e"/>
   </g>
  </g>
 </g>
</svg>
