<?xml version="1.0" encoding="UTF-8" standalone="no"?>
<!-- Created with Inkscape (http://www.inkscape.org/) -->
<svg id="svg6035" xmlns:rdf="http://www.w3.org/1999/02/22-rdf-syntax-ns#" xmlns="http://www.w3.org/2000/svg" height="38.628mm" width="45.589mm" version="1.1" xmlns:cc="http://creativecommons.org/ns#" xmlns:dc="http://purl.org/dc/elements/1.1/" viewBox="0 0 161.53684 136.87241">
 <metadata id="metadata6040">
  <rdf:RDF>
   <cc:Work rdf:about="">
    <dc:format>image/svg+xml</dc:format>
    <dc:type rdf:resource="http://purl.org/dc/dcmitype/StillImage"/>
    <dc:title/>
   </cc:Work>
  </rdf:RDF>
 </metadata>
 <g id="layer1" transform="translate(-54.946 -25.355)">
  <g fill-opacity="0">
   <g id="g2724" transform="matrix(1.25 0 0 -1.25 61.831 31.13)">
    <path id="path2726" d="m0 0c0-40.626 1.219-59.313 1.219-99.939h117" fill-opacity="0" stroke="#746661" stroke-miterlimit="10"/>
   </g>
   <g id="g2728" transform="matrix(1.25 0 0 -1.25 55.539 40.888)">
    <path id="path2730" d="m0 0c1.232 3.696 2.574 7.356 4.024 10.973 1.523-4.589 3.045-9.177 4.568-13.765-0.183 0.67-1.022 0.866-1.713 0.941-2.321 0.254-4.643 0.508-6.964 0.762" fill-opacity="0" stroke="#746661" stroke-miterlimit="10"/>
   </g>
   <g id="g2732" transform="matrix(1.25 0 0 -1.25 196.65 148)">
    <path id="path2734" d="m0 0c0.66-3.421 0.686-6.964 0.076-10.395 3.609 2.136 7.45 3.879 11.435 5.187-3.979 1.725-7.866 3.66-11.64 5.794" fill-opacity="0" stroke="#746661" stroke-miterlimit="10"/>
   </g>
   <g id="g2736" transform="matrix(1.25 0 0 -1.25 197.59 151.56)">
    <path id="path2738" d="m0 0c0.475 0.317 0.95 0.633 1.425 0.95" fill-opacity="0" stroke="#746661" stroke-miterlimit="10"/>
   </g>
   <g id="g2740" transform="matrix(1.25 0 0 -1.25 197.86 155.08)">
    <path id="path2742" d="m0 0c1.563 1.363 3.342 2.479 5.251 3.291" fill-opacity="0" stroke="#746661" stroke-miterlimit="10"/>
   </g>
   <g id="g2744" transform="matrix(1.25 0 0 -1.25 198.14 158.02)">
    <path id="path2746" d="m0 0c2.204 1.82 4.632 3.369 7.211 4.6" fill-opacity="0" stroke="#746661" stroke-miterlimit="10"/>
   </g>
   <g id="g2748" transform="matrix(1.25 0 0 -1.25 59.288 34.028)">
    <path id="path2750" d="m0 0c0.622 0.489 1.243 0.979 1.865 1.468" fill-opacity="0" stroke="#746661" stroke-miterlimit="10"/>
   </g>
   <g id="g2752" transform="matrix(1.25 0 0 -1.25 57.53 38.502)">
    <path id="path2754" d="m0 0c1.361 1.388 2.947 2.556 4.677 3.445" fill-opacity="0" stroke="#746661" stroke-miterlimit="10"/>
   </g>
   <g id="g2756" transform="matrix(1.25 0 0 -1.25 58.061 41.08)">
    <path id="path2758" d="m0 0c1.791 0.988 3.491 2.141 5.072 3.438" fill-opacity="0" stroke="#746661" stroke-miterlimit="10"/>
   </g>
   <g id="g2760" transform="matrix(1.25 0 0 -1.25 63.446 42.045)">
    <path id="path2762" d="m0 0c0.316 0.238 0.633 0.475 0.949 0.713" fill-opacity="0" stroke="#746661" stroke-miterlimit="10"/>
   </g>
   <g id="g2772" transform="matrix(1.25 0 0 -1.25 61.96 75.027)">
    <path id="path2774" d="m0 0c1.661 0.103 3.321 0.207 4.982 0.31" fill-opacity="0" stroke="#746661" stroke-miterlimit="10"/>
   </g>
   <g id="g2776" transform="matrix(1.25 0 0 -1.25 74.134 75.669)">
    <path id="path2778" d="m0 0c1.663 0.146 3.326 0.292 4.989 0.439" fill-opacity="0" stroke="#746661" stroke-miterlimit="10"/>
   </g>
   <g id="g2780" transform="matrix(1.25 0 0 -1.25 90.446 74.63)">
    <path id="path2782" d="m0 0c1.744 0.108 3.489 0.216 5.233 0.323" fill-opacity="0" stroke="#746661" stroke-miterlimit="10"/>
   </g>
   <g id="g2784" transform="matrix(1.25 0 0 -1.25 99.353 85.371)">
    <path id="path2786" d="m0 0v-6.173" fill-opacity="0" stroke="#746661" stroke-miterlimit="10"/>
   </g>
   <g id="g2788" transform="matrix(1.25 0 0 -1.25 98.75 101.99)">
    <path id="path2790" d="m0 0c0.103-1.819 0.206-3.638 0.308-5.457" fill-opacity="0" stroke="#746661" stroke-miterlimit="10"/>
   </g>
   <g id="g2792" transform="matrix(1.25 0 0 -1.25 98.91 119.51)">
    <path id="path2794" d="m0 0c-0.211-3.083-0.421-6.166-0.632-9.249" fill-opacity="0" stroke="#746661" stroke-miterlimit="10"/>
   </g>
   <g id="g2796" transform="matrix(1.25 0 0 -1.25 98.764 135.83)">
    <path id="path2798" d="m0 0c-0.102-1.898-0.203-3.797-0.305-5.695" fill-opacity="0" stroke="#746661" stroke-miterlimit="10"/>
   </g>
   <g id="g2800" transform="matrix(1.25 0 0 -1.25 98.473 149.78)">
    <path id="path2802" d="m0 0c-0.289-1.642-0.365-3.322-0.223-4.983" fill-opacity="0" stroke="#746661" stroke-miterlimit="10"/>
   </g>
   <g id="g2804" transform="matrix(1.25 0 0 -1.25 62.849 110.95)">
    <path id="path2806" d="m0 0c1.897 0.063 3.795 0.126 5.692 0.189" fill-opacity="0" stroke="#746661" stroke-miterlimit="10"/>
   </g>
   <g id="g2808" transform="matrix(1.25 0 0 -1.25 80.053 111.14)">
    <path id="path2810" d="m0 0c2.037 0.363 4.113 0.508 6.18 0.434" fill-opacity="0" stroke="#746661" stroke-miterlimit="10"/>
   </g>
   <g id="g2812" transform="matrix(1.25 0 0 -1.25 100.55 109.44)">
    <path id="path2814" d="m0 0c1.761 0.544 3.612 0.797 5.455 0.745" fill-opacity="0" stroke="#746661" stroke-miterlimit="10"/>
   </g>
   <g id="g2816" transform="matrix(1.25 0 0 -1.25 114.79 109.75)">
    <path id="path2818" d="m0 0c1.65 0.222 3.317 0.316 4.981 0.281" fill-opacity="0" stroke="#746661" stroke-miterlimit="10"/>
   </g>
   <g id="g2820" transform="matrix(1.25 0 0 -1.25 128.72 109.59)">
    <path id="path2822" d="m0 0c2.218 0.222 4.435 0.445 6.653 0.667" fill-opacity="0" stroke="#746661" stroke-miterlimit="10"/>
   </g>
   <g id="g2824" transform="matrix(1.25 0 0 -1.25 142.99 109.75)">
    <path id="path2826" d="m0 0c1.802 0.278 3.634 0.367 5.455 0.265" fill-opacity="0" stroke="#746661" stroke-miterlimit="10"/>
   </g>
   <g id="g2828" transform="matrix(1.25 0 0 -1.25 153.38 108.84)">
    <path id="path2830" d="m0 0c1.386 0.384 2.831 0.554 4.268 0.502" fill-opacity="0" stroke="#746661" stroke-miterlimit="10"/>
   </g>
   <g id="g2832" transform="matrix(1.25 0 0 -1.25 160.25 108.81)">
    <path id="path2834" d="m0 0c0.242-1.491 0.302-3.011 0.178-4.517" fill-opacity="0" stroke="#746661" stroke-miterlimit="10"/>
   </g>
   <g id="g2836" transform="matrix(1.25 0 0 -1.25 159.62 121.58)">
    <path id="path2838" d="m0 0c-0.104-1.661-0.207-3.321-0.311-4.982" fill-opacity="0" stroke="#746661" stroke-miterlimit="10"/>
   </g>
   <g id="g2840" transform="matrix(1.25 0 0 -1.25 159.09 134.35)">
    <path id="path2842" d="m0 0c-0.086-1.662-0.172-3.323-0.258-4.985" fill-opacity="0" stroke="#746661" stroke-miterlimit="10"/>
   </g>
   <g id="g2844" transform="matrix(1.25 0 0 -1.25 158.42 147.4)">
    <path id="path2846" d="m0 0v-4.986" fill-opacity="0" stroke="#746661" stroke-miterlimit="10"/>
   </g>
   <g id="g2848" transform="matrix(1.25 0 0 -1.25 109.44 52.722)">
    <path id="path2850" d="m0 0c-1.9-2.137-3.8-4.273-5.699-6.41" fill-opacity="0" stroke="#746661" stroke-miterlimit="10"/>
   </g>
   <g id="g2852" transform="matrix(1.25 0 0 -1.25 102.51 50.737)">
    <path id="path2854" d="m0 0c2.599-2.949 5.198-5.898 7.797-8.847" fill-opacity="0" stroke="#746661" stroke-miterlimit="10"/>
   </g>
   <g id="g2856" transform="matrix(1.25 0 0 -1.25 115.23 60.192)">
    <path id="path2858" d="m0 0c0.608 1.643 1.469 3.193 2.542 4.577-0.251-3.426-0.111-6.881 0.417-10.275" fill-opacity="0" stroke="#746661" stroke-miterlimit="10"/>
   </g>
   <g id="g2860" transform="matrix(1.25 0 0 -1.25 162.51 84.132)">
    <path id="path2862" d="m0 0c-2.526-3.068-5.053-6.137-7.579-9.205 0.011 0.205 0.021 0.411 0.031 0.617" fill-opacity="0" stroke="#746661" stroke-miterlimit="10"/>
   </g>
   <g id="g2864" transform="matrix(1.25 0 0 -1.25 154.17 84.884)">
    <path id="path2866" d="m0 0c2.386-1.988 4.266-4.579 5.416-7.464" fill-opacity="0" stroke="#746661" stroke-miterlimit="10"/>
   </g>
   <g id="g2868" transform="matrix(1.25 0 0 -1.25 164.62 91.159)">
    <path id="path2870" d="m0 0c0.782 0.126 1.578 0.171 2.369 0.133 0.26-0.012 0.531-0.037 0.755-0.171 0.421-0.253 0.543-0.825 0.451-1.308-0.091-0.483-0.347-0.916-0.524-1.375-0.236-0.61-0.314-1.352 0.079-1.875 0.393-0.522 1.378-0.542 1.603 0.072" fill-opacity="0" stroke="#746661" stroke-miterlimit="10"/>
   </g>
   <g id="g2872" transform="matrix(1.25 0 0 -1.25 62.134 93.32)">
    <path id="path2874" d="m0 0c0.288 0.517 1.282 0.114 1.128-0.457-0.153-0.572-1.215-0.423-1.205 0.169 0.01 0.61 1.049 0.759 1.315 0.209 0.267-0.549-0.288-1.251-0.898-1.235-0.388 0.01-0.772 0.271-0.874 0.645-0.101 0.375 0.138 0.823 0.518 0.901 0.425 0.086 0.859-0.372 0.75-0.792s-0.711-0.608-1.04-0.326-0.235 0.906 0.163 1.078" fill-opacity="0" stroke="#746661" stroke-miterlimit="10"/>
   </g>
   <path id="path2878" d="m61.96 95.068c4.0912-8.6938 12.649-14.419 21.38-18.428 4.0062-1.8388 8.2288-3.4338 12.632-3.6012 6.5838-0.25 12.884 2.71 18.37 6.3588 4.1088 2.7325 7.9362 5.89 11.4 9.405 6.2875 6.38 11.814 14.235 20.251 17.244 10.129 3.6125 21.55-1.0412 29.698-8.06 7.59-6.5388 13.269-14.976 18.616-23.448 7.6938-12.188 14.909-24.676 21.622-37.429" stroke="#47bbea" stroke-miterlimit="10" stroke-width="1.25"/>
  </g>
  <path id="path2766" d="m-1.9392-1.8208c-0.079086 0.11256 0.11661 0.27515 0.21261 0.17656 0.32812-0.08019 0.38623-0.60584 0.10741-0.79711-0.27846-0.19128-0.70699-0.020231-0.83353 0.2928-0.12433 0.30788 0.040463 0.71104 0.35681 0.81256 0.31598 0.10152 0.70184-0.16553 0.6886-0.49732-0.01361-0.33179-0.46458-0.56096-0.72465-0.35497-0.26043 0.20599-0.098582 0.72538 0.23321 0.72318 0.35166-0.00221 0.51461-0.49217 0.35607-0.80594-0.16406-0.32554-0.58193-0.5113-0.92218-0.38108-0.34062 0.13058-0.52491 0.58377-0.34246 0.89974 0.18208 0.31561 0.70479 0.36527 0.91961 0.070626 0.12176-0.167 0.12212-0.42412-0.026852-0.56684-0.14934-0.14309-0.43884-0.10962-0.52344 0.078718-0.084604 0.1887 0.12985 0.43994 0.32076 0.36085" transform="matrix(3.346 0 0 -3.346 107.57 66.715)" stroke="#ff249c" stroke-miterlimit="10" stroke-width=".36784" fill="#ff249c"/>
  <path id="path2766-8" d="m160.42 105.61c-0.26463-0.37663 0.39016-0.92064 0.7114-0.59079 1.0979 0.26832 1.2923 2.0271 0.35939 2.6672-0.93171 0.64001-2.3656 0.0677-2.789-0.97972-0.41601-1.0302 0.13539-2.3791 1.1939-2.7188 1.0572-0.3397 2.3484 0.55386 2.304 1.664-0.0455 1.1102-1.5545 1.877-2.4247 1.1877-0.8714-0.68925-0.32986-2.4271 0.78032-2.4198 1.1766 0.007 1.7219 1.6468 1.1914 2.6967-0.54894 1.0892-1.9471 1.7108-3.0856 1.2751-1.1397-0.43694-1.7564-1.9533-1.1459-3.0105 0.60925-1.056 2.3582-1.2222 3.077-0.23632 0.40739 0.55879 0.40862 1.4191-0.0899 1.8967-0.4997 0.47878-1.4683 0.36678-1.7514-0.26339-0.28309-0.6314 0.43447-1.472 1.0732-1.2074" stroke="#ff249c" stroke-miterlimit="10" stroke-width="1.2308" fill="#ff249c"/>
 </g>
</svg>
