<?xml version="1.0" encoding="UTF-8" standalone="no"?>
<!-- Created with Inkscape (http://www.inkscape.org/) -->

<svg
   xmlns:dc="http://purl.org/dc/elements/1.1/"
   xmlns:cc="http://creativecommons.org/ns#"
   xmlns:rdf="http://www.w3.org/1999/02/22-rdf-syntax-ns#"
   xmlns:svg="http://www.w3.org/2000/svg"
   xmlns="http://www.w3.org/2000/svg"
   xmlns:sodipodi="http://sodipodi.sourceforge.net/DTD/sodipodi-0.dtd"
   xmlns:inkscape="http://www.inkscape.org/namespaces/inkscape"
   id="svg2"
   height="338.96"
   width="312.08"
   version="1.1"
   viewBox="0 0 312.08033 338.96345"
   inkscape:version="0.91 r13725"
   sodipodi:docname="juui-logo-purple-opt.svg">
  <metadata
     id="metadata4103">
    <rdf:RDF>
      <cc:Work
         rdf:about="">
        <dc:format>image/svg+xml</dc:format>
        <dc:type
           rdf:resource="http://purl.org/dc/dcmitype/StillImage" />
        <dc:title></dc:title>
      </cc:Work>
    </rdf:RDF>
  </metadata>
  <defs
     id="defs4061" />
  <sodipodi:namedview
     pagecolor="#ffffff"
     bordercolor="#666666"
     borderopacity="1"
     objecttolerance="10"
     gridtolerance="10"
     guidetolerance="10"
     inkscape:pageopacity="0"
     inkscape:pageshadow="2"
     inkscape:window-width="1600"
     inkscape:window-height="836"
     id="namedview4344"
     showgrid="false"
     inkscape:zoom="0.98464246"
     inkscape:cx="120.93162"
     inkscape:cy="245.5916"
     inkscape:window-x="0"
     inkscape:window-y="27"
     inkscape:window-maximized="1"
     inkscape:current-layer="svg2" />
  <g
     id="mainLayer"
     transform="matrix(0.57692795,0,0,0.57692795,-100.28497,201.90921)">
    <g
       id="juui-left-leg"
       transform="matrix(1.25,0,0,-1.25,416.63,91.951)">
      <path
         id="juui-leftLeg-path"
         d="m 0,0 -2.835,2.699 3.231,31.366 c 0.769,7.463 -0.327,13.652 -2.461,13.808 l -0.103,0.011 c -2.128,0.157 -4.48,-5.771 -5.247,-13.23 L -10.759,2.219 -13.069,0.882 C -20.461,-3.391 -25.46,-8.039 -24.234,-9.495 l 0.06,-0.074 c 1.062,-1.262 6.431,0.284 12.647,3.492 -0.257,-6.153 0.813,-10.921 2.669,-10.978 l 0.105,-0.002 c 1.899,-0.058 3.969,4.588 4.941,10.889 5.233,-4.541 10.176,-7.262 11.594,-6.23 l 0.076,0.055 C 9.464,-11.179 5.95,-5.652 0,0"
         inkscape:connector-curvature="0"
         style="fill:#ff931e" />
    </g>
    <g
       id="juui-right-leg"
       transform="matrix(1.25,0,0,-1.25,491.78,90.386)">
      <path
         id="juui-right-leg-path"
         d="M 0,0 -2.283,1.382 -5,33.58 c -0.632,7.477 -2.852,13.192 -4.983,13.052 l -0.11,-0.005 c -2.127,-0.142 -3.364,-5.995 -2.735,-13.475 l 2.63,-31.145 -2.887,-2.646 c -6.052,-5.539 -9.673,-10.998 -8.087,-12.193 l 0.079,-0.063 c 1.401,-1.05 6.389,1.576 11.701,6.016 0.846,-6.375 2.836,-11.115 4.752,-11.008 l 0.097,0.037 c 1.852,0.106 3.014,4.785 2.872,10.92 6.154,-3.321 11.496,-4.967 12.576,-3.728 l 0.065,0.076 C 12.225,-9.15 7.315,-4.404 0,0"
         inkscape:connector-curvature="0"
         style="fill:#ff931e" />
    </g>
    <g
       id="juui-head"
       transform="matrix(1.25,0,0,-1.25,325,-214.73)">
      <path
         id="juui-head-path"
         d="m 0,0 c 5.847,4.872 32.151,-6.819 32.151,-6.819 0,0 30.203,15.589 65.273,15.589 35.074,0 59.431,-15.589 59.431,-15.589 0,0 30.202,14.614 36.047,9.743 5.845,-4.872 -5.885,-45.233 -5.845,-60.406 0.126,-49.159 37.02,-171.47 -94.503,-172.44 -131.53,-0.98 -91.379,123.88 -89.634,172.44 0.519,14.379 -8.767,52.609 -2.923,57.48"
         inkscape:connector-curvature="0"
         style="fill:#a273d8" />
    </g>
    <g
       id="juui-eyeShadow"
       transform="matrix(1.25,0,0,-1.25,558.82,-142.88)">
      <path
         id="juui-eyeShadow-path"
         d="m 0,0 c -0.003,0.387 0.01,0.801 0.024,1.218 -8.008,16.245 -24.725,27.424 -44.06,27.424 -22.864,0 -42.078,-15.627 -47.544,-36.786 -5.463,21.159 -24.678,36.786 -47.543,36.786 -20.174,0 -37.499,-12.171 -45.053,-29.567 -0.36,-8.028 -1.689,-18.023 -3.105,-29.135 4.468,-22.52 24.329,-39.501 48.158,-39.501 22.865,0 42.08,15.63 47.543,36.789 5.466,-21.159 24.68,-36.789 47.544,-36.789 21.888,0 40.424,14.326 46.762,34.111 C 1.429,-21.831 0.021,-9.533 -0.003,0"
         inkscape:connector-curvature="0"
         style="fill:#bc94dd" />
    </g>
    <g
       id="juui-bellyShadow"
       transform="matrix(1.25,0,0,-1.25,446.18,-46.671)">
      <path
         id="juui-bellyShadow-path"
         d="m 0,0 c -41.699,0 -75.503,-32.933 -75.503,-73.556 0,-0.34 0.021,-0.676 0.026,-1.013 14.685,-13.023 37.167,-21.157 71.093,-20.908 40.416,0.3 64.909,12.067 79.473,29.637 C 71.128,-28.842 39.026,0 0,0"
         inkscape:connector-curvature="0"
         style="fill:#bc94dd" />
    </g>
    <g
       id="juui-leftEye"
       transform="matrix(1.25,0,0,-1.25,424.87,-124.61)">
      <path
         id="juui-leftEye-path"
         d="m 0,0 c 0,-19.369 -15.704,-35.072 -35.074,-35.072 -19.371,0 -35.074,15.703 -35.074,35.072 0,19.37 15.703,35.073 35.074,35.073 C -15.704,35.073 0,19.37 0,0"
         inkscape:connector-curvature="0"
         style="fill:#ffffff" />
    </g>
    <g
       id="juui-rightEye"
       transform="matrix(1.25,0,0,-1.25,551.52,-124.61)">
      <path
         id="juui-rightEye-path"
         d="m 0,0 c 0,-19.369 -15.703,-35.072 -35.074,-35.072 -19.369,0 -35.071,15.703 -35.071,35.072 0,19.37 15.702,35.073 35.071,35.073 C -15.703,35.073 0,19.37 0,0"
         inkscape:connector-curvature="0"
         style="fill:#ffffff" />
    </g>
    <g
       id="juui-mouth"
       transform="matrix(1.25,0,0,-1.25,458.96,-96.167)">
      <path
         id="juui-mouth-path"
         d="m 0,0 c -8.731,10.24 -22.519,3.839 -23.436,0 -0.92,-3.838 12.696,-23.033 12.696,-23.033 0,0 10.684,19.195 10.74,23.033"
         inkscape:connector-curvature="0"
         style="fill:#f99525" />
    </g>
    <g
       id="juui-rightWing"
       transform="matrix(1.25,0,0,-1.25,532.15,-11.747)">
      <path
         id="juui-rightWing-path"
         d="M 0,0 C 5.386,22.464 13.402,32.234 19.843,35.944 31.5,42.02 44.611,12.177 49.946,-6.473 c 5.989,-20.952 6.141,-39.362 0.329,-41.117 -4.186,-1.262 -10.332,6.481 -15.678,18.757 -2.063,-13.613 -6.036,-22.579 -10.473,-21.92 -4.238,0.632 -7.807,9.896 -9.567,23.084 C 9.748,-39.912 4.234,-47.235 0.335,-45.41 -5.233,-42.797 -5.387,-22.467 0,0"
         inkscape:connector-curvature="0"
         style="fill:#662d91" />
    </g>
    <g
       id="juui-leftWing"
       transform="matrix(1.25,0,0,-1.25,357.89,-10.158)">
      <path
         id="juui-leftWing-path"
         d="m 0,0 c -4.621,22.635 -12.301,32.669 -18.615,36.597 -11.443,6.466 -25.557,-22.917 -31.522,-41.373 -6.696,-20.739 -7.471,-39.133 -1.723,-41.083 4.143,-1.405 10.546,6.126 16.307,18.215 1.599,-13.675 5.264,-22.771 9.724,-22.263 4.256,0.49 8.138,9.629 10.344,22.748 4.39,-12.401 9.653,-19.907 13.61,-18.213 C 3.779,-42.95 4.624,-22.637 0,0"
         inkscape:connector-curvature="0"
         style="fill:#662d91" />
    </g>
    <g
       id="juui-bellyThings">
      <g
         id="g226"
         transform="matrix(1.25,0,0,-1.25,444,8.5887)">
        <path
           id="path228"
           d="m 0,0 -0.129,0 c -5.775,0 -10.241,3.555 -11.38,9.181 -0.221,1.094 0.337,2.107 1.25,2.375 0.908,0.259 1.829,-0.451 2.051,-1.544 0.921,-4.559 4.943,-6.234 8.109,-6.266 3.583,-0.019 7.824,1.901 8.769,6.265 0.238,1.09 1.166,1.735 2.074,1.452 C 11.652,11.18 12.195,10.24 11.958,9.15 10.557,2.696 4.965,0 0,0"
           inkscape:connector-curvature="0"
           style="fill:#d3b7ea" />
      </g>
      <g
         id="g230"
         transform="matrix(1.25,0,0,-1.25,398.72,8.5887)">
        <path
           id="path232"
           d="m 0,0 -0.129,0 c -5.775,0 -10.242,3.555 -11.38,9.181 -0.223,1.094 0.337,2.107 1.249,2.375 0.909,0.259 1.829,-0.451 2.05,-1.544 0.923,-4.559 4.946,-6.234 8.109,-6.266 3.585,-0.019 7.825,1.901 8.772,6.265 0.237,1.09 1.163,1.735 2.073,1.452 C 11.65,11.18 12.195,10.24 11.958,9.15 10.557,2.696 4.965,0 0,0"
           inkscape:connector-curvature="0"
           style="fill:#d3b7ea" />
      </g>
      <g
         id="g234"
         transform="matrix(1.25,0,0,-1.25,489.29,8.5887)">
        <path
           id="path236"
           d="m 0,0 -0.129,0 c -5.774,0 -10.241,3.555 -11.38,9.181 -0.221,1.094 0.337,2.107 1.25,2.375 0.91,0.259 1.829,-0.451 2.05,-1.544 0.923,-4.559 4.944,-6.234 8.11,-6.266 3.583,-0.019 7.826,1.901 8.771,6.265 0.236,1.09 1.164,1.735 2.072,1.452 C 11.652,11.18 12.195,10.24 11.959,9.15 10.558,2.696 4.967,0 0,0"
           inkscape:connector-curvature="0"
           style="fill:#d3b7ea" />
      </g>
      <g
         id="g242"
         transform="matrix(1.25,0,0,-1.25,422.06,44.839)">
        <path
           id="path244"
           d="m 0,0 -0.127,0 c -5.775,0 -10.243,3.787 -11.382,9.414 -0.221,1.096 0.339,2.223 1.25,2.49 0.91,0.261 1.829,-0.392 2.052,-1.486 0.921,-4.557 4.944,-6.202 8.108,-6.235 3.585,-0.018 7.826,1.916 8.771,6.278 0.238,1.091 1.164,1.742 2.073,1.46 0.907,-0.283 1.452,-1.452 1.214,-2.542 C 10.558,2.926 4.967,0 0,0"
           inkscape:connector-curvature="0"
           style="fill:#d3b7ea" />
      </g>
      <g
         id="g238"
         transform="matrix(1.25,0,0,-1.25,465.93,44.839)">
        <path
           id="path240"
           d="m 0,0 -0.129,0 c -5.773,0 -10.24,3.787 -11.378,9.414 -0.223,1.096 0.335,2.223 1.248,2.49 0.91,0.261 1.829,-0.392 2.051,-1.486 0.921,-4.557 4.944,-6.202 8.109,-6.235 3.583,-0.018 7.826,1.916 8.771,6.278 0.236,1.091 1.164,1.742 2.072,1.46 0.908,-0.283 1.451,-1.452 1.216,-2.542 C 10.557,2.926 4.965,0 0,0"
           inkscape:connector-curvature="0"
           style="fill:#d3b7ea" />
      </g>
    </g>
    <g
       id="juui-leftPupilEye"
       transform="matrix(1.25,0,0,-1.25,404.63,-129.62)">
      <path
         id="juui-leftPupilEye-path"
         d="m 0,0 c 0,-10.653 -8.638,-19.29 -19.292,-19.29 -10.653,0 -19.289,8.637 -19.289,19.29 0,10.654 8.636,19.29 19.289,19.29 C -8.638,19.29 0,10.654 0,0"
         inkscape:connector-curvature="0" />
    </g>
    <path
       id="juui-leftCenterPupilEye-path"
       d="m 371.51,-138.14 c 0,2.4212 -1.9625,4.3862 -4.3838,4.3862 -2.4212,0 -4.3825,-1.965 -4.3825,-4.3862 0,-2.4225 1.9612,-4.385 4.3825,-4.385 2.4212,0 4.3838,1.9625 4.3838,4.385"
       inkscape:connector-curvature="0"
       style="fill:#ffffff" />
    <g
       id="juui-rightPupilEye"
       transform="matrix(1.25,0,0,-1.25,507.4,-105.44)">
      <path
         id="juui-rightPupilEye-path"
         d="m 0,0 c -10.653,0 -19.29,8.638 -19.29,19.292 0,10.653 8.637,19.289 19.29,19.289 10.654,0 19.29,-8.636 19.29,-19.289 C 19.29,8.638 10.654,0 0,0"
         inkscape:connector-curvature="0" />
    </g>
    <g
       id="juui-rightCenterPupilEye"
       transform="matrix(1.25,0,0,-1.25,515.93,-138.57)">
      <path
         id="juui-rightCenterPupilEye-path"
         d="m 0,0 c -1.937,0 -3.509,1.57 -3.509,3.507 0,1.937 1.572,3.507 3.509,3.507 1.938,0 3.508,-1.57 3.508,-3.507 C 3.508,1.57 1.938,0 0,0"
         inkscape:connector-curvature="0"
         style="fill:#ffffff" />
    </g>
  </g>
</svg>
